<svg xmlns="http://www.w3.org/2000/svg" xmlns:xlink="http://www.w3.org/1999/xlink" viewBox="0,0,256,256" width="48px" height="48px"><g fill="#607b96" fill-rule="nonzero" stroke="none" stroke-width="1" stroke-linecap="butt" stroke-linejoin="miter" stroke-miterlimit="10" stroke-dasharray="" stroke-dashoffset="0" font-family="none" font-weight="none" font-size="none" text-anchor="none" style="mix-blend-mode: normal"><g transform="scale(10.66889,10.66889)"><path d="M8.5,23v0c-1.933,0 -3.5,-1.567 -3.5,-3.5v0c0,-1.933 1.567,-3.5 3.5,-3.5h3.5v3.5c0,1.933 -1.567,3.5 -3.5,3.5z" opacity="0.35"></path><path d="M15.5,9h-3.5v-7h3.5c1.933,0 3.5,1.567 3.5,3.5v0c0,1.933 -1.567,3.5 -3.5,3.5z"></path><path d="M8.5,9h3.5v-7h-3.5c-1.933,0 -3.5,1.567 -3.5,3.5v0c0,1.933 1.567,3.5 3.5,3.5z" opacity="0.35"></path><path d="M8.5,16h3.5v-7h-3.5c-1.933,0 -3.5,1.567 -3.5,3.5v0c0,1.933 1.567,3.5 3.5,3.5z"></path><circle cx="15.5" cy="12.5" r="3.5" opacity="0.35"></circle></g></g></svg>